<?xml version="1.0" encoding="UTF-8" standalone="no"?>
<svg
   xmlns:dc="http://purl.org/dc/elements/1.1/"
   xmlns:cc="http://creativecommons.org/ns#"
   xmlns:rdf="http://www.w3.org/1999/02/22-rdf-syntax-ns#"
   xmlns:svg="http://www.w3.org/2000/svg"
   xmlns="http://www.w3.org/2000/svg"
   viewBox="0 0 1914.0667 429"
   height="429"
   width="1914.0667"
   xml:space="preserve"
   id="svg2"
   version="1.1"><metadata
     id="metadata8"><rdf:RDF><cc:Work
         rdf:about=""><dc:format>image/svg+xml</dc:format><dc:type
           rdf:resource="http://purl.org/dc/dcmitype/StillImage" /></cc:Work></rdf:RDF></metadata><defs
     id="defs6"><clipPath
       id="clipPath20"
       clipPathUnits="userSpaceOnUse"><path
         id="path18"
         d="M 149.281,2564.65 C 49.7617,2528.47 0,2480.58 0,2420.82 V 1114.4 h 699.762 v 615.95 h 979.898 v 261.29 H 699.762 v 298.58 c 0,37.32 37.324,55.98 111.883,55.98 h 868.015 v 261.29 H 419.781 c -98.316,0 -188.488,-14.43 -270.5,-42.84 z" /></clipPath><linearGradient
       id="linearGradient30"
       spreadMethod="pad"
       gradientTransform="matrix(0,-1493.1,-1493.1,0,839.831,2607.49)"
       gradientUnits="userSpaceOnUse"
       y2="0"
       x2="1"
       y1="0"
       x1="0"><stop
         id="stop22"
         offset="0"
         style="stop-opacity:1;stop-color:#f2f8f5" /><stop
         id="stop24"
         offset="0.495215"
         style="stop-opacity:1;stop-color:#ffffff" /><stop
         id="stop26"
         offset="0.51"
         style="stop-opacity:1;stop-color:#d9e1dd" /><stop
         id="stop28"
         offset="1"
         style="stop-opacity:1;stop-color:#f2f8f5" /></linearGradient><clipPath
       id="clipPath40"
       clipPathUnits="userSpaceOnUse"><path
         id="path38"
         d="m 2911.69,1562.36 310.03,591.71 309.87,-591.71 z m 757.96,989.11 c -85.76,37.24 -176.72,56.02 -272.49,56.02 -98.34,0 -188.21,-19.27 -269.68,-57.94 -81.53,-38.61 -138.5,-88.28 -170.79,-149.23 L 2283.03,1114.4 h 391.91 l 97.73,186.62 h 897.3 l 96.94,-186.62 h 755.79 l -677.63,1293.35 c -31.14,58.45 -89.71,106.5 -175.42,143.72 z" /></clipPath><linearGradient
       id="linearGradient50"
       spreadMethod="pad"
       gradientTransform="matrix(0,-1493.1,-1493.1,0,3402.86,2607.49)"
       gradientUnits="userSpaceOnUse"
       y2="0"
       x2="1"
       y1="0"
       x1="0"><stop
         id="stop42"
         offset="0"
         style="stop-opacity:1;stop-color:#f2f8f5" /><stop
         id="stop44"
         offset="0.495215"
         style="stop-opacity:1;stop-color:#ffffff" /><stop
         id="stop46"
         offset="0.51"
         style="stop-opacity:1;stop-color:#d9e1dd" /><stop
         id="stop48"
         offset="1"
         style="stop-opacity:1;stop-color:#f2f8f5" /></linearGradient><clipPath
       id="clipPath60"
       clipPathUnits="userSpaceOnUse"><path
         id="path58"
         d="m 5394.36,2388.16 c -218.89,-146.11 -328.43,-322.11 -328.43,-527.1 0,-205.52 109.54,-381.27 328.43,-527.28 219.02,-146.33 482.04,-219.38 789.6,-219.38 h 839.67 v 261.18 h -839.67 c -145.74,0 -243.94,61.62 -294.96,184.74 -27.46,67.2 -41.01,167.48 -41.01,300.74 0,132.99 13.55,233.04 41.01,300.35 51.02,123.16 149.22,184.79 294.96,184.79 h 839.67 v 261.29 h -839.67 c -307.56,0 -570.58,-72.94 -789.6,-219.33 z" /></clipPath><linearGradient
       id="linearGradient70"
       spreadMethod="pad"
       gradientTransform="matrix(0,-1493.1,-1493.1,0,6044.78,2607.49)"
       gradientUnits="userSpaceOnUse"
       y2="0"
       x2="1"
       y1="0"
       x1="0"><stop
         id="stop62"
         offset="0"
         style="stop-opacity:1;stop-color:#f2f8f5" /><stop
         id="stop64"
         offset="0.495215"
         style="stop-opacity:1;stop-color:#ffffff" /><stop
         id="stop66"
         offset="0.51"
         style="stop-opacity:1;stop-color:#d9e1dd" /><stop
         id="stop68"
         offset="1"
         style="stop-opacity:1;stop-color:#f2f8f5" /></linearGradient><clipPath
       id="clipPath80"
       clipPathUnits="userSpaceOnUse"><path
         id="path78"
         d="m 8062.23,2564.65 c -99.73,-36.18 -149.36,-84.07 -149.36,-143.83 v -1119.8 c 0,-59.81 49.63,-107.75 149.36,-143.74 82.16,-28.62 172.11,-42.88 270.32,-42.88 h 1259.91 v 261.18 H 8724.5 c -74.82,0 -112.09,18.8 -112.09,56.3 v 298.47 h 980.05 v 261.29 h -980.05 v 298.58 c 0,37.32 37.27,55.98 112.09,55.98 h 867.96 v 261.29 H 8332.55 c -98.21,0 -188.16,-14.43 -270.32,-42.84 z" /></clipPath><linearGradient
       id="linearGradient90"
       spreadMethod="pad"
       gradientTransform="matrix(0,-1493.1,-1493.1,0,8752.67,2607.49)"
       gradientUnits="userSpaceOnUse"
       y2="0"
       x2="1"
       y1="0"
       x1="0"><stop
         id="stop82"
         offset="0"
         style="stop-opacity:1;stop-color:#f2f8f5" /><stop
         id="stop84"
         offset="0.495215"
         style="stop-opacity:1;stop-color:#ffffff" /><stop
         id="stop86"
         offset="0.51"
         style="stop-opacity:1;stop-color:#d9e1dd" /><stop
         id="stop88"
         offset="1"
         style="stop-opacity:1;stop-color:#f2f8f5" /></linearGradient><clipPath
       id="clipPath100"
       clipPathUnits="userSpaceOnUse"><path
         id="path98"
         d="m 12186.8,2606.09 v -261.37 h 618.6 c 73.2,0 110,-18.57 110,-56.02 V 1112.88 h 706.4 V 2288.7 c 0,37.45 36.6,56.02 109.9,56.02 h 618.6 v 261.37 z m -1401.9,-1483.02 0.6,2.99 h 752.8 v 510.11 l -754.7,304.38 z" /></clipPath><linearGradient
       id="linearGradient110"
       spreadMethod="pad"
       gradientTransform="matrix(0,-1493.2,-1493.2,0,12567,2606.08)"
       gradientUnits="userSpaceOnUse"
       y2="0"
       x2="1"
       y1="0"
       x1="0"><stop
         id="stop102"
         offset="0"
         style="stop-opacity:1;stop-color:#f2f8f5" /><stop
         id="stop104"
         offset="0.495215"
         style="stop-opacity:1;stop-color:#ffffff" /><stop
         id="stop106"
         offset="0.51"
         style="stop-opacity:1;stop-color:#d9e1dd" /><stop
         id="stop108"
         offset="1"
         style="stop-opacity:1;stop-color:#f2f8f5" /></linearGradient><clipPath
       id="clipPath120"
       clipPathUnits="userSpaceOnUse"><path
         id="path118"
         d="m 7936.76,445.078 h -6.32 l -2.97,-5.199 -81.16,-147.77 -82.04,147.77 -2.71,5.199 h -6.16 -117.42 -18.1 l 9.5,-14.828 154.35,-248.828 V 16.3203 6.41016 h 10.22 103.5 10.04 V 16.3203 182.672 l 155.78,247.34 9.52,15.066 h -18 z" /></clipPath><linearGradient
       id="linearGradient130"
       spreadMethod="pad"
       gradientTransform="matrix(0,-438.674,-438.674,0,7846.34,445.08)"
       gradientUnits="userSpaceOnUse"
       y2="0"
       x2="1"
       y1="0"
       x1="0"><stop
         id="stop122"
         offset="0"
         style="stop-opacity:1;stop-color:#f2f8f5" /><stop
         id="stop124"
         offset="0.495215"
         style="stop-opacity:1;stop-color:#ffffff" /><stop
         id="stop126"
         offset="0.51"
         style="stop-opacity:1;stop-color:#d9e1dd" /><stop
         id="stop128"
         offset="1"
         style="stop-opacity:1;stop-color:#f2f8f5" /></linearGradient><clipPath
       id="clipPath140"
       clipPathUnits="userSpaceOnUse"><path
         id="path138"
         d="m 8691.72,91.4688 c -14.11,0 -26.09,0.4726 -35.61,1.4804 -9.34,0.961 -19.26,2.9414 -29.47,5.9414 -8.93,2.2114 -15.51,6.1604 -19.81,11.5974 -4.31,5.442 -6.58,12.082 -6.58,20.742 v 184.129 c 0,16.809 6.46,27.672 19.7,33.86 15.42,7.133 39.45,10.883 71.12,10.883 31.52,0 55.42,-3.75 70.79,-11.114 13.61,-6.457 20.07,-17.34 20.07,-33.629 V 131.23 c 0,-8.66 -2.27,-15.589 -6.34,-20.742 -4.31,-5.437 -10.5,-9.386 -19.14,-11.5974 -9.87,-3 -19.5,-4.9804 -28.89,-5.9414 -9.63,-1.0078 -21.61,-1.4804 -35.84,-1.4804 z m 158.6,325.6792 c -14.77,9.141 -32.84,16.563 -53.55,22.293 -20.51,5.438 -39.07,8.86 -55.36,10.118 -16.09,1.492 -33.11,1.921 -50.88,1.921 -17.46,0 -34.24,-0.429 -49.95,-1.921 -16.1,-1.258 -34.62,-4.68 -55.16,-10.118 -20.71,-5.73 -38.6,-13.152 -53.36,-22.293 -15.27,-9.359 -28.43,-23.179 -39.07,-40.75 -11,-17.777 -16.52,-38.578 -16.52,-61.796 V 131.23 c 0,-27.429 7.71,-51.1402 22.54,-69.9605 14.56,-18.7382 34.3,-32.3203 59,-40.7578 23.33,-7.8828 45.65,-13.32029 66.28,-16.32029 C 8644.88,1.48828 8667.14,0 8690.53,0 c 24.67,0 48.35,1.78125 70.52,5.21094 22.37,3.69922 45,9.85936 67.22,18.30076 23.3,9.1289 42.25,22.9571 56.24,41.2188 14.08,18.3008 21.13,40.7895 21.13,66.4995 v 183.372 c 0,23.507 -5.37,44.457 -15.98,62.027 -10.39,17.543 -23.57,31.16 -39.34,40.519 z" /></clipPath><linearGradient
       id="linearGradient150"
       spreadMethod="pad"
       gradientTransform="matrix(0,-451.477,-451.477,0,8691.05,451.48)"
       gradientUnits="userSpaceOnUse"
       y2="0"
       x2="1"
       y1="0"
       x1="0"><stop
         id="stop142"
         offset="0"
         style="stop-opacity:1;stop-color:#f2f8f5" /><stop
         id="stop144"
         offset="0.495215"
         style="stop-opacity:1;stop-color:#ffffff" /><stop
         id="stop146"
         offset="0.51"
         style="stop-opacity:1;stop-color:#d9e1dd" /><stop
         id="stop148"
         offset="1"
         style="stop-opacity:1;stop-color:#f2f8f5" /></linearGradient><clipPath
       id="clipPath160"
       clipPathUnits="userSpaceOnUse"><path
         id="path158"
         d="m 9637.46,445.078 h -10.14 V 131.23 c 0,-15.3 -4.43,-25.421 -13.6,-30.652 -7.35,-4.1874 -23.45,-9.1092 -58.55,-9.1092 -35.58,0 -52.25,4.9218 -60.02,9.3322 -9.43,5.219 -14.11,15.129 -14.11,30.429 v 303.961 9.887 h -10.12 -103.55 -10.2 V 435.191 131.23 C 9357.17,44.0195 9423.44,0 9553.95,0 c 130.67,0 197.14,44.0195 197.14,131.23 v 303.961 9.887 h -10.05 z" /></clipPath><linearGradient
       id="linearGradient170"
       spreadMethod="pad"
       gradientTransform="matrix(0,-445.076,-445.076,0,9554.13,445.08)"
       gradientUnits="userSpaceOnUse"
       y2="0"
       x2="1"
       y1="0"
       x1="0"><stop
         id="stop162"
         offset="0"
         style="stop-opacity:1;stop-color:#f2f8f5" /><stop
         id="stop164"
         offset="0.495215"
         style="stop-opacity:1;stop-color:#ffffff" /><stop
         id="stop166"
         offset="0.51"
         style="stop-opacity:1;stop-color:#d9e1dd" /><stop
         id="stop168"
         offset="1"
         style="stop-opacity:1;stop-color:#f2f8f5" /></linearGradient><clipPath
       id="clipPath180"
       clipPathUnits="userSpaceOnUse"><path
         id="path178"
         d="m 10335.8,353.648 h 78.9 c 26,0 37.9,-3.929 43.5,-7.16 2,-1.457 9.3,-5.648 9.3,-23.508 v -29.902 c 0,-9.828 -1.6,-22.93 -9.1,-28.367 -3.9,-2.699 -14.8,-7.422 -43.7,-7.422 h -78.9 z m 278.3,-331.6792 -115.7,159.6792 c 22.8,4.692 42.3,12.872 58.7,24.973 21.4,15.559 32.2,38.047 32.2,66.699 v 73.399 c 0,36.371 -15,62.051 -44.7,77.359 -27.6,14.113 -69.8,21 -128.7,21 h -193.7 -10.2 V 435.191 16.3203 6.41016 h 10.2 103.5 10.1 V 16.3203 171.039 h 32.2 l 109.9,-160.1601 3,-4.46874 h 5.4 119.4 19.5 z" /></clipPath><linearGradient
       id="linearGradient190"
       spreadMethod="pad"
       gradientTransform="matrix(0,-438.674,-438.674,0,10418.6,445.08)"
       gradientUnits="userSpaceOnUse"
       y2="0"
       x2="1"
       y1="0"
       x1="0"><stop
         id="stop182"
         offset="0"
         style="stop-opacity:1;stop-color:#f2f8f5" /><stop
         id="stop184"
         offset="0.495215"
         style="stop-opacity:1;stop-color:#ffffff" /><stop
         id="stop186"
         offset="0.51"
         style="stop-opacity:1;stop-color:#d9e1dd" /><stop
         id="stop188"
         offset="1"
         style="stop-opacity:1;stop-color:#f2f8f5" /></linearGradient><clipPath
       id="clipPath200"
       clipPathUnits="userSpaceOnUse"><path
         id="path198"
         d="m 220.559,91.4688 c -96.731,0 -96.731,35.3402 -96.731,46.9492 v 178.191 c 0,9.832 2.035,17.981 5.977,23.711 3.828,5.68 9.722,9.86 17.98,12.559 9.574,3.242 18.762,5.223 27.598,5.973 9.207,0.988 21.277,1.25 35.793,1.25 36.613,0 81.418,-5.961 133.113,-17.801 l 12.492,-2.711 v 12.34 75.609 8.441 l -8.523,1.188 C 289.492,446.828 242.914,451.48 209.926,451.48 70.5625,451.48 0,405.781 0,315.359 V 131.23 C 0,108.75 5.13672,89 15.375,72.4492 25.3945,55.8281 38.0078,42.7695 52.7578,33.6094 67.0859,24.4688 84.5703,17.2891 104.805,12.1289 124.496,7.19141 142.668,3.98828 158.77,2.21094 174.918,0.769531 192.066,0 209.926,0 c 44.558,0 92.179,4.71875 141.301,14.3516 l 8.218,1.75 v 7.8789 76.3985 12.332 l -12.48,-2.941 C 293.52,97.6406 251.02,91.4688 220.559,91.4688 Z" /></clipPath><linearGradient
       id="linearGradient210"
       spreadMethod="pad"
       gradientTransform="matrix(0,-451.477,-451.477,0,179.722,451.48)"
       gradientUnits="userSpaceOnUse"
       y2="0"
       x2="1"
       y1="0"
       x1="0"><stop
         id="stop202"
         offset="0"
         style="stop-opacity:1;stop-color:#f2522d" /><stop
         id="stop204"
         offset="0.480408"
         style="stop-opacity:1;stop-color:#f35d2c" /><stop
         id="stop206"
         offset="0.510816"
         style="stop-opacity:1;stop-color:#f14c2e" /><stop
         id="stop208"
         offset="1"
         style="stop-opacity:1;stop-color:#f2592b" /></linearGradient><clipPath
       id="clipPath220"
       clipPathUnits="userSpaceOnUse"><path
         id="path218"
         d="m 1091.85,445.078 h -10.14 V 277.309 H 918.883 v 157.882 9.887 H 908.684 805.176 794.992 V 435.191 16.3203 6.41016 h 10.184 103.508 10.199 V 16.3203 185.898 H 1081.71 V 16.3203 6.41016 h 10.14 103.55 10.14 v 9.91014 418.8707 9.887 h -10.14 z" /></clipPath><linearGradient
       id="linearGradient230"
       spreadMethod="pad"
       gradientTransform="matrix(0,-438.674,-438.674,0,1000.27,445.08)"
       gradientUnits="userSpaceOnUse"
       y2="0"
       x2="1"
       y1="0"
       x1="0"><stop
         id="stop222"
         offset="0"
         style="stop-opacity:1;stop-color:#f2522d" /><stop
         id="stop224"
         offset="0.480408"
         style="stop-opacity:1;stop-color:#f35d2c" /><stop
         id="stop226"
         offset="0.510816"
         style="stop-opacity:1;stop-color:#f14c2e" /><stop
         id="stop228"
         offset="1"
         style="stop-opacity:1;stop-color:#f2592b" /></linearGradient><clipPath
       id="clipPath240"
       clipPathUnits="userSpaceOnUse"><path
         id="path238"
         d="m 1900.43,198.711 h -97.42 l 48.68,141.09 z m 27.17,239.98 -2.4,6.387 h -7.16 -126.02 -7.03 l -2.5,-6.387 -159.28,-418.9019 -5.1,-13.37894 h 14.57 102.24 7.3 l 2.33,6.69144 35.48,103.7964 h 142.71 l 36.16,-103.7964 2.32,-6.69144 h 7.3 104.92 14.44 l -5.02,13.37894 z" /></clipPath><linearGradient
       id="linearGradient250"
       spreadMethod="pad"
       gradientTransform="matrix(0,-438.674,-438.674,0,1852.99,445.08)"
       gradientUnits="userSpaceOnUse"
       y2="0"
       x2="1"
       y1="0"
       x1="0"><stop
         id="stop242"
         offset="0"
         style="stop-opacity:1;stop-color:#f2522d" /><stop
         id="stop244"
         offset="0.480408"
         style="stop-opacity:1;stop-color:#f35d2c" /><stop
         id="stop246"
         offset="0.510816"
         style="stop-opacity:1;stop-color:#f14c2e" /><stop
         id="stop248"
         offset="1"
         style="stop-opacity:1;stop-color:#f2592b" /></linearGradient><clipPath
       id="clipPath260"
       clipPathUnits="userSpaceOnUse"><path
         id="path258"
         d="M 2624.38,97.8789 V 445.078 H 2500.52 V 6.41016 h 10.13 315.32 10.1 v 9.91014 71.6914 9.8672 h -10.1 z" /></clipPath><linearGradient
       id="linearGradient270"
       spreadMethod="pad"
       gradientTransform="matrix(0,-438.674,-438.674,0,2668.29,445.08)"
       gradientUnits="userSpaceOnUse"
       y2="0"
       x2="1"
       y1="0"
       x1="0"><stop
         id="stop262"
         offset="0"
         style="stop-opacity:1;stop-color:#f2522d" /><stop
         id="stop264"
         offset="0.480408"
         style="stop-opacity:1;stop-color:#f35d2c" /><stop
         id="stop266"
         offset="0.510816"
         style="stop-opacity:1;stop-color:#f14c2e" /><stop
         id="stop268"
         offset="1"
         style="stop-opacity:1;stop-color:#f2592b" /></linearGradient><clipPath
       id="clipPath280"
       clipPathUnits="userSpaceOnUse"><path
         id="path278"
         d="M 3398.85,97.8789 V 445.078 H 3275 V 6.41016 h 10.2 315.21 10.12 v 9.91014 71.6914 9.8672 h -10.12 z" /></clipPath><linearGradient
       id="linearGradient290"
       spreadMethod="pad"
       gradientTransform="matrix(0,-438.674,-438.674,0,3442.77,445.08)"
       gradientUnits="userSpaceOnUse"
       y2="0"
       x2="1"
       y1="0"
       x1="0"><stop
         id="stop282"
         offset="0"
         style="stop-opacity:1;stop-color:#f2522d" /><stop
         id="stop284"
         offset="0.480408"
         style="stop-opacity:1;stop-color:#f35d2c" /><stop
         id="stop286"
         offset="0.510816"
         style="stop-opacity:1;stop-color:#f14c2e" /><stop
         id="stop288"
         offset="1"
         style="stop-opacity:1;stop-color:#f2592b" /></linearGradient><clipPath
       id="clipPath300"
       clipPathUnits="userSpaceOnUse"><path
         id="path298"
         d="m 4173.28,97.8789 v 88.0191 h 203.07 v 91.411 h -10.13 -192.94 v 76.339 h 214.79 10.18 v 9.891 71.652 9.887 h -10.18 -328.45 -10.2 V 435.191 16.3203 6.41016 h 10.2 335.13 10.09 v 9.91014 71.6914 9.8672 h -10.09 z" /></clipPath><linearGradient
       id="linearGradient310"
       spreadMethod="pad"
       gradientTransform="matrix(0,-438.674,-438.674,0,4227.13,445.08)"
       gradientUnits="userSpaceOnUse"
       y2="0"
       x2="1"
       y1="0"
       x1="0"><stop
         id="stop302"
         offset="0"
         style="stop-opacity:1;stop-color:#f2522d" /><stop
         id="stop304"
         offset="0.480408"
         style="stop-opacity:1;stop-color:#f35d2c" /><stop
         id="stop306"
         offset="0.510816"
         style="stop-opacity:1;stop-color:#f14c2e" /><stop
         id="stop308"
         offset="1"
         style="stop-opacity:1;stop-color:#f2592b" /></linearGradient><clipPath
       id="clipPath320"
       clipPathUnits="userSpaceOnUse"><path
         id="path318"
         d="m 5167.14,445.078 h -10.13 V 180.461 l -189.91,260.43 -3.04,4.187 h -5.26 -104.82 -10.2 V 435.191 16.3203 6.41016 h 10.2 92.16 10.25 V 16.3203 275.301 l 189.86,-264.6526 3.03,-4.23824 h 5.32 104.78 10.19 v 9.91014 418.8707 9.887 h -10.19 z" /></clipPath><linearGradient
       id="linearGradient330"
       spreadMethod="pad"
       gradientTransform="matrix(0,-438.674,-438.674,0,5056.67,445.08)"
       gradientUnits="userSpaceOnUse"
       y2="0"
       x2="1"
       y1="0"
       x1="0"><stop
         id="stop322"
         offset="0"
         style="stop-opacity:1;stop-color:#f2522d" /><stop
         id="stop324"
         offset="0.480408"
         style="stop-opacity:1;stop-color:#f35d2c" /><stop
         id="stop326"
         offset="0.510816"
         style="stop-opacity:1;stop-color:#f14c2e" /><stop
         id="stop328"
         offset="1"
         style="stop-opacity:1;stop-color:#f2592b" /></linearGradient><clipPath
       id="clipPath340"
       clipPathUnits="userSpaceOnUse"><path
         id="path338"
         d="m 6026.94,236.289 h -10.08 V 172 h 0.21 V 98.8906 c -20.96,-4.9804 -40.98,-7.4218 -59.43,-7.4218 -37.47,0 -66.45,3.6718 -86.2,11.6092 -17.11,6.402 -25.21,17.774 -25.21,35.34 v 168.57 c 0,13.051 0,53.114 101.99,53.114 63.05,0 121.29,-5.961 172.92,-17.801 l 12.5,-2.711 v 12.34 76.34 8.14 l -8.46,1.481 c -55.98,9.187 -115.53,13.589 -176.96,13.589 -20.57,0 -40.5,-0.96 -59.11,-2.929 -18.92,-1.981 -39,-6.172 -59.43,-12.571 -20.76,-6.46 -38.86,-14.839 -53.75,-24.769 -15.52,-10.352 -28.23,-24.691 -38.37,-42.961 -9.94,-18.07 -15.22,-39.301 -15.22,-62.75 V 131.23 c 0,-21.23 4.54,-40.2612 13.24,-56.3394 8.73,-16.0312 20.44,-28.8906 34.85,-38.2812 13.7,-9.1992 31.07,-16.6211 51.29,-22.2578 19.76,-5.67191 39.84,-9.40238 59.49,-11.38285 C 5900.91,0.960938 5922.97,0 5946.92,0 c 29.17,0 61.54,2.5 96.19,7.94141 34.79,5.16019 63.82,11.84769 86.46,19.75779 l 6.78,2.4414 v 6.6875 189.8319 9.871 l -10.2,-0.242 z" /></clipPath><linearGradient
       id="linearGradient350"
       spreadMethod="pad"
       gradientTransform="matrix(0,-451.477,-451.477,0,5929.34,451.48)"
       gradientUnits="userSpaceOnUse"
       y2="0"
       x2="1"
       y1="0"
       x1="0"><stop
         id="stop342"
         offset="0"
         style="stop-opacity:1;stop-color:#f2522d" /><stop
         id="stop344"
         offset="0.480408"
         style="stop-opacity:1;stop-color:#f35d2c" /><stop
         id="stop346"
         offset="0.510816"
         style="stop-opacity:1;stop-color:#f14c2e" /><stop
         id="stop348"
         offset="1"
         style="stop-opacity:1;stop-color:#f2592b" /></linearGradient><clipPath
       id="clipPath360"
       clipPathUnits="userSpaceOnUse"><path
         id="path358"
         d="m 6934.42,97.8789 h -221.41 v 88.0191 h 203.11 v 9.84 71.711 9.86 h -10.09 -193.02 v 76.339 h 214.76 10.1 v 9.891 71.652 9.887 h -10.1 -328.44 -10.12 V 435.191 16.3203 6.41016 h 10.12 335.09 10.14 v 9.91014 71.6914 9.8672 z" /></clipPath><linearGradient
       id="linearGradient370"
       spreadMethod="pad"
       gradientTransform="matrix(0,-438.674,-438.674,0,6766.88,445.08)"
       gradientUnits="userSpaceOnUse"
       y2="0"
       x2="1"
       y1="0"
       x1="0"><stop
         id="stop362"
         offset="0"
         style="stop-opacity:1;stop-color:#f2522d" /><stop
         id="stop364"
         offset="0.480408"
         style="stop-opacity:1;stop-color:#f35d2c" /><stop
         id="stop366"
         offset="0.510816"
         style="stop-opacity:1;stop-color:#f14c2e" /><stop
         id="stop368"
         offset="1"
         style="stop-opacity:1;stop-color:#f2592b" /></linearGradient><clipPath
       id="clipPath380"
       clipPathUnits="userSpaceOnUse"><path
         id="path378"
         d="m 11625.4,236.531 h -10.3 v -55.832 l 0.4,-0.238 V 98.8906 c -21.1,-4.9804 -41,-7.4218 -59.3,-7.4218 -37.5,0 -66.5,3.6718 -86.4,11.6092 -16.9,6.402 -25,17.774 -25,35.34 v 168.57 c 0,13.051 0,53.114 102,53.114 62.9,0 121.2,-5.961 172.9,-17.801 l 12.4,-2.711 v 12.34 76.34 8.14 l -8.4,1.481 c -56,9.187 -115.4,13.589 -176.9,13.589 -20.7,0 -40.7,-0.96 -59.2,-2.929 -19,-1.981 -39,-6.172 -59.5,-12.571 -20.7,-6.46 -38.8,-14.839 -53.6,-24.769 -15.6,-10.352 -28.3,-24.691 -38.3,-42.961 -10.2,-18.07 -15.4,-39.109 -15.4,-62.75 V 131.23 c 0,-21.23 4.5,-40.2612 13.3,-56.3394 8.4,-16.0312 20.5,-28.8906 34.7,-38.2812 13.9,-9.1992 31.2,-16.6211 51.5,-22.2578 19.7,-5.67191 39.7,-9.40238 59.4,-11.38285 C 11499.4,0.960938 11521.4,0 11545.5,0 c 29.1,0 61.5,2.5 96.2,7.94141 34.8,5.16019 63.9,11.84769 86.4,19.75779 l 6.7,2.4414 v 6.6875 189.8319 9.629 h -10.1 z" /></clipPath><linearGradient
       id="linearGradient390"
       spreadMethod="pad"
       gradientTransform="matrix(0,-451.477,-451.477,0,11527.8,451.48)"
       gradientUnits="userSpaceOnUse"
       y2="0"
       x2="1"
       y1="0"
       x1="0"><stop
         id="stop382"
         offset="0"
         style="stop-opacity:1;stop-color:#f2f8f5" /><stop
         id="stop384"
         offset="0.495215"
         style="stop-opacity:1;stop-color:#ffffff" /><stop
         id="stop386"
         offset="0.51"
         style="stop-opacity:1;stop-color:#d9e1dd" /><stop
         id="stop388"
         offset="1"
         style="stop-opacity:1;stop-color:#f2f8f5" /></linearGradient><clipPath
       id="clipPath400"
       clipPathUnits="userSpaceOnUse"><path
         id="path398"
         d="m 12420.4,198.711 h -97.4 l 48.8,140.879 z m 27.1,239.98 -2.3,6.387 h -7.1 -126.2 -7.1 l -2.3,-6.387 -159.4,-418.9019 -5,-13.37894 h 14.6 102.2 7.2 l 2.3,6.69144 35.6,103.7964 h 142.8 l 36.1,-103.7964 2.2,-6.69144 h 7.4 104.8 14.5 l -4.9,13.37894 z" /></clipPath><linearGradient
       id="linearGradient410"
       spreadMethod="pad"
       gradientTransform="matrix(0,-438.674,-438.674,0,12373,445.08)"
       gradientUnits="userSpaceOnUse"
       y2="0"
       x2="1"
       y1="0"
       x1="0"><stop
         id="stop402"
         offset="0"
         style="stop-opacity:1;stop-color:#f2f8f5" /><stop
         id="stop404"
         offset="0.495215"
         style="stop-opacity:1;stop-color:#ffffff" /><stop
         id="stop406"
         offset="0.51"
         style="stop-opacity:1;stop-color:#d9e1dd" /><stop
         id="stop408"
         offset="1"
         style="stop-opacity:1;stop-color:#f2f8f5" /></linearGradient><clipPath
       id="clipPath420"
       clipPathUnits="userSpaceOnUse"><path
         id="path418"
         d="m 13389.1,445.078 h -7.3 l -2.3,-6.66 -95.4,-272.359 -96.5,272.359 -2.2,6.66 h -7.4 -147.3 -10.2 V 435.191 16.3203 6.41016 h 10.2 94.9 10.1 V 16.3203 275.59 l 95.1,-262.4884 2.3,-6.69144 h 7.3 82.9 7.3 l 2.4,6.69144 91.1,259.2694 V 16.3203 6.41016 h 10 93.8 10 v 9.91014 418.8707 9.887 h -10 z" /></clipPath><linearGradient
       id="linearGradient430"
       spreadMethod="pad"
       gradientTransform="matrix(0,-438.674,-438.674,0,13279.2,445.08)"
       gradientUnits="userSpaceOnUse"
       y2="0"
       x2="1"
       y1="0"
       x1="0"><stop
         id="stop422"
         offset="0"
         style="stop-opacity:1;stop-color:#f2f8f5" /><stop
         id="stop424"
         offset="0.495215"
         style="stop-opacity:1;stop-color:#ffffff" /><stop
         id="stop426"
         offset="0.51"
         style="stop-opacity:1;stop-color:#d9e1dd" /><stop
         id="stop428"
         offset="1"
         style="stop-opacity:1;stop-color:#f2f8f5" /></linearGradient><clipPath
       id="clipPath440"
       clipPathUnits="userSpaceOnUse"><path
         id="path438"
         d="m 14345.3,97.8789 h -221.4 v 88.0191 h 203.1 v 9.84 71.711 9.86 h -10.2 -192.9 v 76.339 h 214.7 10.3 v 9.891 71.652 9.887 h -10.3 -328.3 -10.3 V 435.191 16.3203 6.41016 h 10.3 335 10.2 v 9.91014 71.6914 9.8672 z" /></clipPath><linearGradient
       id="linearGradient450"
       spreadMethod="pad"
       gradientTransform="matrix(0,-438.674,-438.674,0,14177.8,445.08)"
       gradientUnits="userSpaceOnUse"
       y2="0"
       x2="1"
       y1="0"
       x1="0"><stop
         id="stop442"
         offset="0"
         style="stop-opacity:1;stop-color:#f2f8f5" /><stop
         id="stop444"
         offset="0.495215"
         style="stop-opacity:1;stop-color:#ffffff" /><stop
         id="stop446"
         offset="0.51"
         style="stop-opacity:1;stop-color:#d9e1dd" /><stop
         id="stop448"
         offset="1"
         style="stop-opacity:1;stop-color:#f2f8f5" /></linearGradient><clipPath
       id="clipPath460"
       clipPathUnits="userSpaceOnUse"><path
         id="path458"
         d="m 11551.5,3205.46 c 0,12.51 -13.9,16.29 -20.2,6.58 -191.8,-294.52 -299.6,-462.74 -397.1,-615.33 -362.5,-0.17 -884.2,-0.29 -1143.73,0.18 -14.2,0 -19.93,-18.42 -7.48,-23.1 474.51,-178.94 1160.31,-448.62 1542.91,-599.9 9.6,-4.01 25.6,5.32 25.6,12.13 z" /></clipPath><linearGradient
       id="linearGradient470"
       spreadMethod="pad"
       gradientTransform="matrix(0,-1244.61,-1244.61,0,10763.8,3217.53)"
       gradientUnits="userSpaceOnUse"
       y2="0"
       x2="1"
       y1="0"
       x1="0"><stop
         id="stop462"
         offset="0"
         style="stop-opacity:1;stop-color:#f2522d" /><stop
         id="stop464"
         offset="0.480408"
         style="stop-opacity:1;stop-color:#f35d2c" /><stop
         id="stop466"
         offset="0.510816"
         style="stop-opacity:1;stop-color:#f14c2e" /><stop
         id="stop468"
         offset="1"
         style="stop-opacity:1;stop-color:#f2592b" /></linearGradient></defs><g
     transform="matrix(1.3333333,0,0,-1.3333333,0,429)"
     id="g10"><g
       transform="scale(0.1)"
       id="g12"><g
         id="g14"><g
           clip-path="url(#clipPath20)"
           id="g16"><path
             id="path32"
             style="fill:url(#linearGradient30);fill-opacity:1;fill-rule:nonzero;stroke:none"
             d="M 149.281,2564.65 C 49.7617,2528.47 0,2480.58 0,2420.82 V 1114.4 h 699.762 v 615.95 h 979.898 v 261.29 H 699.762 v 298.58 c 0,37.32 37.324,55.98 111.883,55.98 h 868.015 v 261.29 H 419.781 c -98.316,0 -188.488,-14.43 -270.5,-42.84" /></g></g><g
         id="g34"><g
           clip-path="url(#clipPath40)"
           id="g36"><path
             id="path52"
             style="fill:url(#linearGradient50);fill-opacity:1;fill-rule:nonzero;stroke:none"
             d="m 2911.69,1562.36 310.03,591.71 309.87,-591.71 z m 757.96,989.11 c -85.76,37.24 -176.72,56.02 -272.49,56.02 -98.34,0 -188.21,-19.27 -269.68,-57.94 -81.53,-38.61 -138.5,-88.28 -170.79,-149.23 L 2283.03,1114.4 h 391.91 l 97.73,186.62 h 897.3 l 96.94,-186.62 h 755.79 l -677.63,1293.35 c -31.14,58.45 -89.71,106.5 -175.42,143.72" /></g></g><g
         id="g54"><g
           clip-path="url(#clipPath60)"
           id="g56"><path
             id="path72"
             style="fill:url(#linearGradient70);fill-opacity:1;fill-rule:nonzero;stroke:none"
             d="m 5394.36,2388.16 c -218.89,-146.11 -328.43,-322.11 -328.43,-527.1 0,-205.52 109.54,-381.27 328.43,-527.28 219.02,-146.33 482.04,-219.38 789.6,-219.38 h 839.67 v 261.18 h -839.67 c -145.74,0 -243.94,61.62 -294.96,184.74 -27.46,67.2 -41.01,167.48 -41.01,300.74 0,132.99 13.55,233.04 41.01,300.35 51.02,123.16 149.22,184.79 294.96,184.79 h 839.67 v 261.29 h -839.67 c -307.56,0 -570.58,-72.94 -789.6,-219.33" /></g></g><g
         id="g74"><g
           clip-path="url(#clipPath80)"
           id="g76"><path
             id="path92"
             style="fill:url(#linearGradient90);fill-opacity:1;fill-rule:nonzero;stroke:none"
             d="m 8062.23,2564.65 c -99.73,-36.18 -149.36,-84.07 -149.36,-143.83 v -1119.8 c 0,-59.81 49.63,-107.75 149.36,-143.74 82.16,-28.62 172.11,-42.88 270.32,-42.88 h 1259.91 v 261.18 H 8724.5 c -74.82,0 -112.09,18.8 -112.09,56.3 v 298.47 h 980.05 v 261.29 h -980.05 v 298.58 c 0,37.32 37.27,55.98 112.09,55.98 h 867.96 v 261.29 H 8332.55 c -98.21,0 -188.16,-14.43 -270.32,-42.84" /></g></g><g
         id="g94"><g
           clip-path="url(#clipPath100)"
           id="g96"><path
             id="path112"
             style="fill:url(#linearGradient110);fill-opacity:1;fill-rule:nonzero;stroke:none"
             d="m 12186.8,2606.09 v -261.37 h 618.6 c 73.2,0 110,-18.57 110,-56.02 V 1112.88 h 706.4 V 2288.7 c 0,37.45 36.6,56.02 109.9,56.02 h 618.6 v 261.37 z m -1401.9,-1483.02 0.6,2.99 h 752.8 v 510.11 l -754.7,304.38 1.3,-817.48" /></g></g><g
         id="g114"><g
           clip-path="url(#clipPath120)"
           id="g116"><path
             id="path132"
             style="fill:url(#linearGradient130);fill-opacity:1;fill-rule:nonzero;stroke:none"
             d="m 7936.76,445.078 h -6.32 l -2.97,-5.199 -81.16,-147.77 -82.04,147.77 -2.71,5.199 h -6.16 -117.42 -18.1 l 9.5,-14.828 154.35,-248.828 V 16.3203 6.41016 h 10.22 103.5 10.04 V 16.3203 182.672 l 155.78,247.34 9.52,15.066 h -18 -118.03" /></g></g><g
         id="g134"><g
           clip-path="url(#clipPath140)"
           id="g136"><path
             id="path152"
             style="fill:url(#linearGradient150);fill-opacity:1;fill-rule:nonzero;stroke:none"
             d="m 8691.72,91.4688 c -14.11,0 -26.09,0.4726 -35.61,1.4804 -9.34,0.961 -19.26,2.9414 -29.47,5.9414 -8.93,2.2114 -15.51,6.1604 -19.81,11.5974 -4.31,5.442 -6.58,12.082 -6.58,20.742 v 184.129 c 0,16.809 6.46,27.672 19.7,33.86 15.42,7.133 39.45,10.883 71.12,10.883 31.52,0 55.42,-3.75 70.79,-11.114 13.61,-6.457 20.07,-17.34 20.07,-33.629 V 131.23 c 0,-8.66 -2.27,-15.589 -6.34,-20.742 -4.31,-5.437 -10.5,-9.386 -19.14,-11.5974 -9.87,-3 -19.5,-4.9804 -28.89,-5.9414 -9.63,-1.0078 -21.61,-1.4804 -35.84,-1.4804 z m 158.6,325.6792 c -14.77,9.141 -32.84,16.563 -53.55,22.293 -20.51,5.438 -39.07,8.86 -55.36,10.118 -16.09,1.492 -33.11,1.921 -50.88,1.921 -17.46,0 -34.24,-0.429 -49.95,-1.921 -16.1,-1.258 -34.62,-4.68 -55.16,-10.118 -20.71,-5.73 -38.6,-13.152 -53.36,-22.293 -15.27,-9.359 -28.43,-23.179 -39.07,-40.75 -11,-17.777 -16.52,-38.578 -16.52,-61.796 V 131.23 c 0,-27.429 7.71,-51.1402 22.54,-69.9605 14.56,-18.7382 34.3,-32.3203 59,-40.7578 23.33,-7.8828 45.65,-13.32029 66.28,-16.32029 C 8644.88,1.48828 8667.14,0 8690.53,0 c 24.67,0 48.35,1.78125 70.52,5.21094 22.37,3.69922 45,9.85936 67.22,18.30076 23.3,9.1289 42.25,22.9571 56.24,41.2188 14.08,18.3008 21.13,40.7895 21.13,66.4995 v 183.372 c 0,23.507 -5.37,44.457 -15.98,62.027 -10.39,17.543 -23.57,31.16 -39.34,40.519" /></g></g><g
         id="g154"><g
           clip-path="url(#clipPath160)"
           id="g156"><path
             id="path172"
             style="fill:url(#linearGradient170);fill-opacity:1;fill-rule:nonzero;stroke:none"
             d="m 9637.46,445.078 h -10.14 V 131.23 c 0,-15.3 -4.43,-25.421 -13.6,-30.652 -7.35,-4.1874 -23.45,-9.1092 -58.55,-9.1092 -35.58,0 -52.25,4.9218 -60.02,9.3322 -9.43,5.219 -14.11,15.129 -14.11,30.429 v 303.961 9.887 h -10.12 -103.55 -10.2 V 435.191 131.23 C 9357.17,44.0195 9423.44,0 9553.95,0 c 130.67,0 197.14,44.0195 197.14,131.23 v 303.961 9.887 h -10.05 -103.58" /></g></g><g
         id="g174"><g
           clip-path="url(#clipPath180)"
           id="g176"><path
             id="path192"
             style="fill:url(#linearGradient190);fill-opacity:1;fill-rule:nonzero;stroke:none"
             d="m 10335.8,353.648 h 78.9 c 26,0 37.9,-3.929 43.5,-7.16 2,-1.457 9.3,-5.648 9.3,-23.508 v -29.902 c 0,-9.828 -1.6,-22.93 -9.1,-28.367 -3.9,-2.699 -14.8,-7.422 -43.7,-7.422 h -78.9 z m 278.3,-331.6792 -115.7,159.6792 c 22.8,4.692 42.3,12.872 58.7,24.973 21.4,15.559 32.2,38.047 32.2,66.699 v 73.399 c 0,36.371 -15,62.051 -44.7,77.359 -27.6,14.113 -69.8,21 -128.7,21 h -193.7 -10.2 V 435.191 16.3203 6.41016 h 10.2 103.5 10.1 V 16.3203 171.039 h 32.2 l 109.9,-160.1601 3,-4.46874 h 5.4 119.4 19.5 l -11.1,15.55864" /></g></g><g
         id="g194"><g
           clip-path="url(#clipPath200)"
           id="g196"><path
             id="path212"
             style="fill:url(#linearGradient210);fill-opacity:1;fill-rule:nonzero;stroke:none"
             d="m 220.559,91.4688 c -96.731,0 -96.731,35.3402 -96.731,46.9492 v 178.191 c 0,9.832 2.035,17.981 5.977,23.711 3.828,5.68 9.722,9.86 17.98,12.559 9.574,3.242 18.762,5.223 27.598,5.973 9.207,0.988 21.277,1.25 35.793,1.25 36.613,0 81.418,-5.961 133.113,-17.801 l 12.492,-2.711 v 12.34 75.609 8.441 l -8.523,1.188 C 289.492,446.828 242.914,451.48 209.926,451.48 70.5625,451.48 0,405.781 0,315.359 V 131.23 C 0,108.75 5.13672,89 15.375,72.4492 25.3945,55.8281 38.0078,42.7695 52.7578,33.6094 67.0859,24.4688 84.5703,17.2891 104.805,12.1289 124.496,7.19141 142.668,3.98828 158.77,2.21094 174.918,0.769531 192.066,0 209.926,0 c 44.558,0 92.179,4.71875 141.301,14.3516 l 8.218,1.75 v 7.8789 76.3985 12.332 l -12.48,-2.941 C 293.52,97.6406 251.02,91.4688 220.559,91.4688" /></g></g><g
         id="g214"><g
           clip-path="url(#clipPath220)"
           id="g216"><path
             id="path232"
             style="fill:url(#linearGradient230);fill-opacity:1;fill-rule:nonzero;stroke:none"
             d="m 1091.85,445.078 h -10.14 V 277.309 H 918.883 v 157.882 9.887 H 908.684 805.176 794.992 V 435.191 16.3203 6.41016 h 10.184 103.508 10.199 V 16.3203 185.898 H 1081.71 V 16.3203 6.41016 h 10.14 103.55 10.14 v 9.91014 418.8707 9.887 h -10.14 -103.55" /></g></g><g
         id="g234"><g
           clip-path="url(#clipPath240)"
           id="g236"><path
             id="path252"
             style="fill:url(#linearGradient250);fill-opacity:1;fill-rule:nonzero;stroke:none"
             d="m 1900.43,198.711 h -97.42 l 48.68,141.09 z m 27.17,239.98 -2.4,6.387 h -7.16 -126.02 -7.03 l -2.5,-6.387 -159.28,-418.9019 -5.1,-13.37894 h 14.57 102.24 7.3 l 2.33,6.69144 35.48,103.7964 h 142.71 l 36.16,-103.7964 2.32,-6.69144 h 7.3 104.92 14.44 L 2082.86,19.7891 1927.6,438.691" /></g></g><g
         id="g254"><g
           clip-path="url(#clipPath260)"
           id="g256"><path
             id="path272"
             style="fill:url(#linearGradient270);fill-opacity:1;fill-rule:nonzero;stroke:none"
             d="M 2624.38,97.8789 V 445.078 H 2500.52 V 6.41016 h 10.13 315.32 10.1 v 9.91014 71.6914 9.8672 h -10.1 -201.59" /></g></g><g
         id="g274"><g
           clip-path="url(#clipPath280)"
           id="g276"><path
             id="path292"
             style="fill:url(#linearGradient290);fill-opacity:1;fill-rule:nonzero;stroke:none"
             d="M 3398.85,97.8789 V 445.078 H 3275 V 6.41016 h 10.2 315.21 10.12 v 9.91014 71.6914 9.8672 h -10.12 -201.56" /></g></g><g
         id="g294"><g
           clip-path="url(#clipPath300)"
           id="g296"><path
             id="path312"
             style="fill:url(#linearGradient310);fill-opacity:1;fill-rule:nonzero;stroke:none"
             d="m 4173.28,97.8789 v 88.0191 h 203.07 v 91.411 h -10.13 -192.94 v 76.339 h 214.79 10.18 v 9.891 71.652 9.887 h -10.18 -328.45 -10.2 V 435.191 16.3203 6.41016 h 10.2 335.13 10.09 v 9.91014 71.6914 9.8672 h -10.09 -221.47" /></g></g><g
         id="g314"><g
           clip-path="url(#clipPath320)"
           id="g316"><path
             id="path332"
             style="fill:url(#linearGradient330);fill-opacity:1;fill-rule:nonzero;stroke:none"
             d="m 5167.14,445.078 h -10.13 V 180.461 l -189.91,260.43 -3.04,4.187 h -5.26 -104.82 -10.2 V 435.191 16.3203 6.41016 h 10.2 92.16 10.25 V 16.3203 275.301 l 189.86,-264.6526 3.03,-4.23824 h 5.32 104.78 10.19 v 9.91014 418.8707 9.887 h -10.19 -92.24" /></g></g><g
         id="g334"><g
           clip-path="url(#clipPath340)"
           id="g336"><path
             id="path352"
             style="fill:url(#linearGradient350);fill-opacity:1;fill-rule:nonzero;stroke:none"
             d="m 6026.94,236.289 h -10.08 V 172 h 0.21 V 98.8906 c -20.96,-4.9804 -40.98,-7.4218 -59.43,-7.4218 -37.47,0 -66.45,3.6718 -86.2,11.6092 -17.11,6.402 -25.21,17.774 -25.21,35.34 v 168.57 c 0,13.051 0,53.114 101.99,53.114 63.05,0 121.29,-5.961 172.92,-17.801 l 12.5,-2.711 v 12.34 76.34 8.14 l -8.46,1.481 c -55.98,9.187 -115.53,13.589 -176.96,13.589 -20.57,0 -40.5,-0.96 -59.11,-2.929 -18.92,-1.981 -39,-6.172 -59.43,-12.571 -20.76,-6.46 -38.86,-14.839 -53.75,-24.769 -15.52,-10.352 -28.23,-24.691 -38.37,-42.961 -9.94,-18.07 -15.22,-39.301 -15.22,-62.75 V 131.23 c 0,-21.23 4.54,-40.2612 13.24,-56.3394 8.73,-16.0312 20.44,-28.8906 34.85,-38.2812 13.7,-9.1992 31.07,-16.6211 51.29,-22.2578 19.76,-5.67191 39.84,-9.40238 59.49,-11.38285 C 5900.91,0.960938 5922.97,0 5946.92,0 c 29.17,0 61.54,2.5 96.19,7.94141 34.79,5.16019 63.82,11.84769 86.46,19.75779 l 6.78,2.4414 v 6.6875 189.8319 9.871 l -10.2,-0.242 h -99.21" /></g></g><g
         id="g354"><g
           clip-path="url(#clipPath360)"
           id="g356"><path
             id="path372"
             style="fill:url(#linearGradient370);fill-opacity:1;fill-rule:nonzero;stroke:none"
             d="m 6934.42,97.8789 h -221.41 v 88.0191 h 203.11 v 9.84 71.711 9.86 h -10.09 -193.02 v 76.339 h 214.76 10.1 v 9.891 71.652 9.887 h -10.1 -328.44 -10.12 V 435.191 16.3203 6.41016 h 10.12 335.09 10.14 v 9.91014 71.6914 9.8672 h -10.14" /></g></g><g
         id="g374"><g
           clip-path="url(#clipPath380)"
           id="g376"><path
             id="path392"
             style="fill:url(#linearGradient390);fill-opacity:1;fill-rule:nonzero;stroke:none"
             d="m 11625.4,236.531 h -10.3 v -55.832 l 0.4,-0.238 V 98.8906 c -21.1,-4.9804 -41,-7.4218 -59.3,-7.4218 -37.5,0 -66.5,3.6718 -86.4,11.6092 -16.9,6.402 -25,17.774 -25,35.34 v 168.57 c 0,13.051 0,53.114 102,53.114 62.9,0 121.2,-5.961 172.9,-17.801 l 12.4,-2.711 v 12.34 76.34 8.14 l -8.4,1.481 c -56,9.187 -115.4,13.589 -176.9,13.589 -20.7,0 -40.7,-0.96 -59.2,-2.929 -19,-1.981 -39,-6.172 -59.5,-12.571 -20.7,-6.46 -38.8,-14.839 -53.6,-24.769 -15.6,-10.352 -28.3,-24.691 -38.3,-42.961 -10.2,-18.07 -15.4,-39.109 -15.4,-62.75 V 131.23 c 0,-21.23 4.5,-40.2612 13.3,-56.3394 8.4,-16.0312 20.5,-28.8906 34.7,-38.2812 13.9,-9.1992 31.2,-16.6211 51.5,-22.2578 19.7,-5.67191 39.7,-9.40238 59.4,-11.38285 C 11499.4,0.960938 11521.4,0 11545.5,0 c 29.1,0 61.5,2.5 96.2,7.94141 34.8,5.16019 63.9,11.84769 86.4,19.75779 l 6.7,2.4414 v 6.6875 189.8319 9.629 h -10.1 l -99.3,0.242" /></g></g><g
         id="g394"><g
           clip-path="url(#clipPath400)"
           id="g396"><path
             id="path412"
             style="fill:url(#linearGradient410);fill-opacity:1;fill-rule:nonzero;stroke:none"
             d="m 12420.4,198.711 h -97.4 l 48.8,140.879 z m 27.1,239.98 -2.3,6.387 h -7.1 -126.2 -7.1 l -2.3,-6.387 -159.4,-418.9019 -5,-13.37894 h 14.6 102.2 7.2 l 2.3,6.69144 35.6,103.7964 h 142.8 l 36.1,-103.7964 2.2,-6.69144 h 7.4 104.8 14.5 l -4.9,13.37894 -155.4,418.9019" /></g></g><g
         id="g414"><g
           clip-path="url(#clipPath420)"
           id="g416"><path
             id="path432"
             style="fill:url(#linearGradient430);fill-opacity:1;fill-rule:nonzero;stroke:none"
             d="m 13389.1,445.078 h -7.3 l -2.3,-6.66 -95.4,-272.359 -96.5,272.359 -2.2,6.66 h -7.4 -147.3 -10.2 V 435.191 16.3203 6.41016 h 10.2 94.9 10.1 V 16.3203 275.59 l 95.1,-262.4884 2.3,-6.69144 h 7.3 82.9 7.3 l 2.4,6.69144 91.1,259.2694 V 16.3203 6.41016 h 10 93.8 10 v 9.91014 418.8707 9.887 h -10 -138.8" /></g></g><g
         id="g434"><g
           clip-path="url(#clipPath440)"
           id="g436"><path
             id="path452"
             style="fill:url(#linearGradient450);fill-opacity:1;fill-rule:nonzero;stroke:none"
             d="m 14345.3,97.8789 h -221.4 v 88.0191 h 203.1 v 9.84 71.711 9.86 h -10.2 -192.9 v 76.339 h 214.7 10.3 v 9.891 71.652 9.887 h -10.3 -328.3 -10.3 V 435.191 16.3203 6.41016 h 10.3 335 10.2 v 9.91014 71.6914 9.8672 h -10.2" /></g></g><g
         id="g454"><g
           clip-path="url(#clipPath460)"
           id="g456"><path
             id="path472"
             style="fill:url(#linearGradient470);fill-opacity:1;fill-rule:nonzero;stroke:none"
             d="m 11551.5,3205.46 c 0,12.51 -13.9,16.29 -20.2,6.58 -191.8,-294.52 -299.6,-462.74 -397.1,-615.33 -362.5,-0.17 -884.2,-0.29 -1143.73,0.18 -14.2,0 -19.93,-18.42 -7.48,-23.1 474.51,-178.94 1160.31,-448.62 1542.91,-599.9 9.6,-4.01 25.6,5.32 25.6,12.13 v 1219.44" /></g></g></g></g></svg>