<?xml version="1.0" encoding="UTF-8" standalone="no"?>
<!-- Created with Inkscape (http://www.inkscape.org/) -->

<svg
   version="1.1"
   id="svg2"
   width="1913.3733"
   height="280.61334"
   viewBox="0 0 1913.3733 280.61334"
   sodipodi:docname="RGB_FACEIT_Logo_NOPAYOFF_White.eps"
   xmlns:inkscape="http://www.inkscape.org/namespaces/inkscape"
   xmlns:sodipodi="http://sodipodi.sourceforge.net/DTD/sodipodi-0.dtd"
   xmlns="http://www.w3.org/2000/svg"
   xmlns:svg="http://www.w3.org/2000/svg">
  <defs
     id="defs6" />
  <sodipodi:namedview
     id="namedview4"
     pagecolor="#ffffff"
     bordercolor="#000000"
     borderopacity="0.25"
     inkscape:showpageshadow="2"
     inkscape:pageopacity="0.0"
     inkscape:pagecheckerboard="0"
     inkscape:deskcolor="#d1d1d1" />
  <g
     id="g8"
     inkscape:groupmode="layer"
     inkscape:label="ink_ext_XXXXXX"
     transform="matrix(1.3333333,0,0,-1.3333333,0,280.61333)">
    <g
       id="g10"
       transform="scale(0.1)">
      <path
         d="M 149.285,1451.77 C 49.7617,1415.57 0.00390625,1367.69 0.00390625,1307.94 V 1.51172 H 699.758 V 617.461 H 1679.66 V 878.762 H 699.758 v 298.568 c 0,37.33 37.328,55.99 111.89,55.99 h 868.012 v 261.29 H 419.781 c -98.32,0 -188.484,-14.44 -270.496,-42.84"
         style="fill:#ffffff;fill-opacity:1;fill-rule:nonzero;stroke:none"
         id="path12" />
      <path
         d="m 2911.69,449.461 310.03,591.719 309.87,-591.719 z m 757.96,989.109 c -85.77,37.26 -176.72,56.04 -272.49,56.04 -98.34,0 -188.21,-19.28 -269.68,-57.94 -81.54,-38.63 -138.51,-88.29 -170.79,-149.23 L 2283.02,1.51172 h 391.92 l 97.73,186.61728 h 897.3 L 3766.91,1.51172 h 755.78 L 3845.07,1294.86 c -31.15,58.45 -89.7,106.5 -175.42,143.71"
         style="fill:#ffffff;fill-opacity:1;fill-rule:nonzero;stroke:none"
         id="path14" />
      <path
         d="m 5394.35,1275.27 c -218.88,-146.12 -328.42,-322.11 -328.42,-527.098 0,-205.531 109.54,-381.274 328.42,-527.274 C 5613.38,74.5586 5876.39,1.51172 6183.95,1.51172 h 839.68 V 262.691 h -839.68 c -145.73,0 -243.93,61.618 -294.95,184.739 -27.46,67.199 -41.01,167.48 -41.01,300.742 0,132.988 13.55,233.039 41.01,300.348 51.02,123.17 149.22,184.8 294.95,184.8 h 839.68 v 261.29 h -839.68 c -307.56,0 -570.57,-72.95 -789.6,-219.34"
         style="fill:#ffffff;fill-opacity:1;fill-rule:nonzero;stroke:none"
         id="path16" />
      <path
         d="m 8062.22,1451.77 c -99.72,-36.2 -149.35,-84.08 -149.35,-143.83 V 188.129 c 0,-59.809 49.63,-107.7501 149.35,-143.7384 82.16,-28.6289 172.11,-42.87888 270.33,-42.87888 H 9592.46 V 262.691 H 8724.5 c -74.82,0 -112.09,18.797 -112.09,56.297 v 298.473 h 980.05 v 261.301 h -980.05 v 298.568 c 0,37.33 37.27,55.99 112.09,55.99 h 867.96 v 261.29 H 8332.55 c -98.22,0 -188.17,-14.44 -270.33,-42.84"
         style="fill:#ffffff;fill-opacity:1;fill-rule:nonzero;stroke:none"
         id="path18" />
      <path
         d="m 12186.8,1493.19 v -261.36 h 618.6 c 73.2,0 110,-18.57 110,-56.02 V 0 h 706.4 v 1175.81 c 0,37.45 36.6,56.02 109.9,56.02 h 618.6 v 261.36 z M 10784.9,10.1719 l 0.6,3 h 752.8 V 523.27 l -754.7,304.39 1.3,-817.4881"
         style="fill:#ffffff;fill-opacity:1;fill-rule:nonzero;stroke:none"
         id="path20" />
      <path
         d="m 11551.5,2092.57 c 0,12.52 -13.9,16.29 -20.2,6.58 -191.8,-294.52 -299.6,-462.74 -397.1,-615.33 -362.5,-0.17 -884.2,-0.29 -1143.74,0.18 -14.19,0 -19.93,-18.42 -7.47,-23.09 474.51,-178.95 1160.31,-448.64 1542.91,-599.91 9.6,-4.02 25.6,5.332 25.6,12.129 V 2092.57"
         style="fill:#ffffff;fill-opacity:1;fill-rule:nonzero;stroke:none"
         id="path22" />
    </g>
  </g>
</svg>
